<mxfile host="app.diagrams.net" modified="2020-10-28T01:20:59.475Z" agent="5.0 (Windows NT 10.0; Win64; x64) AppleWebKit/537.36 (KHTML, like Gecko) Chrome/85.0.4183.121 Safari/537.36 OPR/71.0.3770.287" etag="-hvdx-8aj4t-fOutFMTi" version="13.7.7" type="github">
  <diagram id="yNNqfqmbMpCCi9LRIwTc" name="Page-1">
    <mxGraphModel dx="1625" dy="899" grid="1" gridSize="10" guides="1" tooltips="1" connect="1" arrows="1" fold="1" page="1" pageScale="1" pageWidth="827" pageHeight="1169" math="0" shadow="0">
      <root>
        <mxCell id="0" />
        <mxCell id="1" parent="0" />
        <mxCell id="2S-23cIvG2-X9akDAfDs-6" value="" style="edgeStyle=orthogonalEdgeStyle;rounded=0;orthogonalLoop=1;jettySize=auto;html=1;" edge="1" parent="1" source="2S-23cIvG2-X9akDAfDs-1" target="2S-23cIvG2-X9akDAfDs-2">
          <mxGeometry relative="1" as="geometry" />
        </mxCell>
        <mxCell id="2S-23cIvG2-X9akDAfDs-1" value="Start" style="ellipse;whiteSpace=wrap;html=1;" vertex="1" parent="1">
          <mxGeometry x="140" y="10" width="120" height="80" as="geometry" />
        </mxCell>
        <mxCell id="2S-23cIvG2-X9akDAfDs-7" value="" style="edgeStyle=orthogonalEdgeStyle;rounded=0;orthogonalLoop=1;jettySize=auto;html=1;" edge="1" parent="1" source="2S-23cIvG2-X9akDAfDs-2" target="2S-23cIvG2-X9akDAfDs-3">
          <mxGeometry relative="1" as="geometry" />
        </mxCell>
        <mxCell id="2S-23cIvG2-X9akDAfDs-2" value="&lt;span&gt;e_nro_multiplicando, e_nro_multiplicador,&lt;/span&gt;&lt;br&gt;&lt;span&gt;s_nro_resultado, valor_aux;&lt;/span&gt;" style="shape=internalStorage;whiteSpace=wrap;html=1;dx=15;dy=15;rounded=1;arcSize=8;strokeWidth=2;" vertex="1" parent="1">
          <mxGeometry x="105" y="120" width="190" height="90" as="geometry" />
        </mxCell>
        <mxCell id="2S-23cIvG2-X9akDAfDs-8" value="" style="edgeStyle=orthogonalEdgeStyle;rounded=0;orthogonalLoop=1;jettySize=auto;html=1;" edge="1" parent="1" source="2S-23cIvG2-X9akDAfDs-3" target="2S-23cIvG2-X9akDAfDs-5">
          <mxGeometry relative="1" as="geometry" />
        </mxCell>
        <mxCell id="2S-23cIvG2-X9akDAfDs-3" value="&lt;span&gt;e_nro_multiplicando&lt;/span&gt;" style="html=1;strokeWidth=2;shape=manualInput;whiteSpace=wrap;rounded=1;size=26;arcSize=11;" vertex="1" parent="1">
          <mxGeometry x="115" y="239" width="170" height="70" as="geometry" />
        </mxCell>
        <mxCell id="2S-23cIvG2-X9akDAfDs-10" value="" style="edgeStyle=orthogonalEdgeStyle;rounded=0;orthogonalLoop=1;jettySize=auto;html=1;" edge="1" parent="1" source="2S-23cIvG2-X9akDAfDs-5" target="2S-23cIvG2-X9akDAfDs-9">
          <mxGeometry relative="1" as="geometry" />
        </mxCell>
        <mxCell id="2S-23cIvG2-X9akDAfDs-5" value="&lt;span&gt;e_nro_multiplicador&lt;/span&gt;" style="html=1;strokeWidth=2;shape=manualInput;whiteSpace=wrap;rounded=1;size=26;arcSize=11;" vertex="1" parent="1">
          <mxGeometry x="115" y="349" width="170" height="80" as="geometry" />
        </mxCell>
        <mxCell id="2S-23cIvG2-X9akDAfDs-12" value="" style="edgeStyle=orthogonalEdgeStyle;rounded=0;orthogonalLoop=1;jettySize=auto;html=1;" edge="1" parent="1" source="2S-23cIvG2-X9akDAfDs-9" target="2S-23cIvG2-X9akDAfDs-11">
          <mxGeometry relative="1" as="geometry" />
        </mxCell>
        <mxCell id="2S-23cIvG2-X9akDAfDs-9" value="&lt;span&gt;s_nro_resultado = 0&lt;/span&gt;" style="whiteSpace=wrap;html=1;rounded=1;strokeWidth=2;arcSize=11;" vertex="1" parent="1">
          <mxGeometry x="105" y="469" width="190" height="40" as="geometry" />
        </mxCell>
        <mxCell id="2S-23cIvG2-X9akDAfDs-20" value="" style="edgeStyle=orthogonalEdgeStyle;rounded=0;orthogonalLoop=1;jettySize=auto;html=1;" edge="1" parent="1" source="2S-23cIvG2-X9akDAfDs-11" target="2S-23cIvG2-X9akDAfDs-19">
          <mxGeometry relative="1" as="geometry" />
        </mxCell>
        <mxCell id="2S-23cIvG2-X9akDAfDs-11" value="&lt;span&gt;valor_aux = 0&lt;/span&gt;" style="whiteSpace=wrap;html=1;rounded=1;strokeWidth=2;arcSize=11;" vertex="1" parent="1">
          <mxGeometry x="105" y="559" width="190" height="40" as="geometry" />
        </mxCell>
        <mxCell id="2S-23cIvG2-X9akDAfDs-18" value="" style="edgeStyle=orthogonalEdgeStyle;rounded=0;orthogonalLoop=1;jettySize=auto;html=1;" edge="1" parent="1" source="2S-23cIvG2-X9akDAfDs-15" target="2S-23cIvG2-X9akDAfDs-17">
          <mxGeometry relative="1" as="geometry" />
        </mxCell>
        <mxCell id="2S-23cIvG2-X9akDAfDs-15" value="s_nro_resultado = s_nro_resultado + e_nro_multiplicando;&lt;br&gt;valor_aux++;" style="rounded=1;whiteSpace=wrap;html=1;absoluteArcSize=1;arcSize=14;strokeWidth=2;" vertex="1" parent="1">
          <mxGeometry x="40" y="739" width="320" height="60" as="geometry" />
        </mxCell>
        <mxCell id="2S-23cIvG2-X9akDAfDs-23" value="" style="edgeStyle=orthogonalEdgeStyle;rounded=0;orthogonalLoop=1;jettySize=auto;html=1;" edge="1" parent="1" source="2S-23cIvG2-X9akDAfDs-17" target="2S-23cIvG2-X9akDAfDs-22">
          <mxGeometry relative="1" as="geometry" />
        </mxCell>
        <mxCell id="2S-23cIvG2-X9akDAfDs-17" value="while(valor_aux &amp;lt; e_nro_multiplicador)" style="shape=process;whiteSpace=wrap;html=1;backgroundOutline=1;rounded=1;strokeWidth=2;arcSize=14;" vertex="1" parent="1">
          <mxGeometry x="65" y="839" width="270" height="60" as="geometry" />
        </mxCell>
        <mxCell id="2S-23cIvG2-X9akDAfDs-21" value="" style="edgeStyle=orthogonalEdgeStyle;rounded=0;orthogonalLoop=1;jettySize=auto;html=1;" edge="1" parent="1" source="2S-23cIvG2-X9akDAfDs-19" target="2S-23cIvG2-X9akDAfDs-15">
          <mxGeometry relative="1" as="geometry" />
        </mxCell>
        <mxCell id="2S-23cIvG2-X9akDAfDs-19" value="do{" style="shape=process;whiteSpace=wrap;html=1;backgroundOutline=1;rounded=1;strokeWidth=2;arcSize=11;" vertex="1" parent="1">
          <mxGeometry x="90" y="639" width="220" height="60" as="geometry" />
        </mxCell>
        <mxCell id="2S-23cIvG2-X9akDAfDs-25" value="" style="edgeStyle=orthogonalEdgeStyle;rounded=0;orthogonalLoop=1;jettySize=auto;html=1;" edge="1" parent="1" source="2S-23cIvG2-X9akDAfDs-22" target="2S-23cIvG2-X9akDAfDs-24">
          <mxGeometry relative="1" as="geometry" />
        </mxCell>
        <mxCell id="2S-23cIvG2-X9akDAfDs-22" value="s_nro_resultado" style="strokeWidth=2;html=1;shape=mxgraph.flowchart.document2;whiteSpace=wrap;size=0.25;" vertex="1" parent="1">
          <mxGeometry x="122.5" y="939" width="155" height="80" as="geometry" />
        </mxCell>
        <mxCell id="2S-23cIvG2-X9akDAfDs-24" value="End" style="ellipse;whiteSpace=wrap;html=1;" vertex="1" parent="1">
          <mxGeometry x="140" y="1059" width="120" height="80" as="geometry" />
        </mxCell>
      </root>
    </mxGraphModel>
  </diagram>
</mxfile>
